# This file uses centimeters as units for non-parametric coordinates.

mtllib branch_model_final.mtl
g default
v 0.057066 -0.189396 -0.098841
v -0.057066 -0.189396 -0.098841
v -0.114132 -0.189396 -0.000000
v -0.057066 -0.189396 0.098841
v 0.057066 -0.189396 0.098841
v 0.114132 -0.189396 0.000000
v 0.057066 0.189396 -0.098841
v -0.057066 0.189396 -0.098841
v -0.114132 0.189396 -0.000000
v -0.057066 0.189396 0.098841
v 0.057066 0.189396 0.098841
v 0.114132 0.189396 0.000000
v 0.000000 -0.189396 0.000000
v 0.050408 0.370693 -0.089783
v 0.042021 0.997075 -0.063743
v 0.037093 1.293041 -0.019761
v 0.030435 1.588226 0.139076
v 0.023778 1.789531 0.354641
v 0.017120 2.161562 0.552920
v -0.050408 0.370693 -0.089783
v -0.040340 0.922464 -0.074650
v -0.019335 1.375067 0.041951
v -0.016804 1.498707 0.103383
v -0.023778 1.789531 0.354641
v -0.017120 2.161562 0.552920
v -0.000000 2.130128 0.575733
v -0.100817 0.373943 -0.002496
v -0.087501 0.922557 0.001164
v -0.049167 1.326328 0.078801
v -0.046636 1.449969 0.140233
v -0.047555 1.731244 0.376144
v -0.034240 2.130128 0.575733
v -0.050408 0.377194 0.084792
v -0.043751 0.921165 0.076938
v -0.037093 1.251279 0.106244
v -0.030435 1.473389 0.218616
v -0.023778 1.672956 0.397647
v -0.017120 2.098694 0.598546
v 0.050408 0.377194 0.084792
v 0.043751 0.921165 0.076938
v 0.037093 1.251279 0.106244
v 0.030435 1.473389 0.218616
v 0.023778 1.672956 0.397647
v 0.017120 2.098694 0.598546
v 0.100817 0.373943 -0.002496
v 0.087825 0.910784 -0.007743
v 0.074186 1.272160 0.043241
v 0.060871 1.530808 0.178846
v 0.047555 1.731244 0.376144
v 0.034240 2.130128 0.575733
v 0.041136 0.709547 -0.080490
v -0.043228 0.777339 -0.078630
v -0.091205 0.769945 0.000146
v -0.045603 0.769844 0.079123
v 0.045603 0.769844 0.079123
v 0.087961 0.764386 -0.005743
v 0.049797 0.750907 -0.093134
v 0.003643 0.803711 -0.115982
v 0.003539 0.903934 -0.111855
v 0.049588 0.951353 -0.084881
v 0.095845 0.798326 -0.066159
v 0.095741 0.898549 -0.062033
v 0.188204 0.861668 -0.228600
v 0.159015 0.900948 -0.249815
v 0.153672 0.970073 -0.239881
v 0.177518 0.999917 -0.208730
v 0.212050 0.891512 -0.197449
v 0.206707 0.960637 -0.187515
v 0.033764 1.440634 0.059657
v 0.067528 1.401484 0.111044
v 0.033764 1.362334 0.162430
v -0.033764 1.362334 0.162430
v -0.062818 1.363779 0.127943
v -0.003153 1.461256 0.054242
v -0.059874 1.415897 0.046385
v -0.084890 1.370046 0.076310
v -0.089041 1.390376 0.122326
v -0.039008 1.482077 0.062475
v -0.068175 1.456556 0.138417
v -0.043159 1.502407 0.108491
v -0.166705 1.776068 0.007445
v -0.171843 2.416320 0.033155
v -0.171925 3.010522 0.000981
v -0.172022 3.540974 -0.206229
v -0.207410 1.771331 0.026218
v -0.203187 2.414886 0.050846
v -0.195543 3.013019 0.014242
v -0.186568 3.548613 -0.199419
v -0.212882 1.788164 0.069632
v -0.203520 2.411974 0.086804
v -0.195794 3.018095 0.041196
v -0.186723 3.564140 -0.185576
v -0.131470 1.797637 0.032086
v -0.140832 2.414840 0.051422
v -0.148558 3.013100 0.014674
v -0.157630 3.548862 -0.199197
v -0.177648 1.809732 0.094272
v -0.172509 2.410494 0.105070
v -0.172427 3.020673 0.054889
v -0.172331 3.572027 -0.178544
v -0.136942 1.814469 0.075499
v -0.141165 2.411927 0.087380
v -0.148809 3.018176 0.041628
v -0.157784 3.564388 -0.185355
v -0.175011 3.197257 -0.102475
v -0.153670 3.224104 -0.071072
v -0.101905 3.182253 -0.078155
v -0.184060 3.145915 -0.129413
v -0.138557 3.160967 -0.092203
v -0.076307 3.132077 -0.092493
v -0.161451 3.099186 -0.153984
v -0.112725 3.083757 -0.139664
v -0.072481 3.070236 -0.140798
v -0.101721 3.023770 -0.175108
v 0.082705 2.000146 0.541522
v 0.017938 2.036383 0.567408
v 0.016943 1.957581 0.648603
v 0.139948 1.919933 0.530216
v 0.058378 1.930995 0.591395
v 0.039704 1.870886 0.688834
v 0.179944 1.841081 0.570299
v 0.140222 1.803908 0.641641
v 0.128722 1.773815 0.705793
v 0.205058 1.706680 0.665289
v 0.179763 0.833943 -0.264711
v 0.189234 0.863868 -0.230071
v 0.240134 0.822428 -0.215225
v 0.180109 0.780103 -0.288817
v 0.210245 0.799191 -0.239339
v 0.268796 0.771510 -0.215570
v 0.209538 0.731731 -0.300106
v 0.250382 0.718463 -0.268439
v 0.288612 0.705654 -0.254399
v 0.272517 0.655674 -0.292850
v -0.237006 3.014487 0.087242
v -0.196035 3.035968 0.033994
v -0.263860 2.990281 -0.026200
v -0.295377 2.958311 0.124127
v -0.270172 2.963681 0.035769
v -0.328612 2.933436 -0.044896
v -0.368653 2.911946 0.115742
v -0.392169 2.889442 0.042101
v -0.427981 2.877593 -0.010122
v -0.479293 2.829510 0.058426
v -0.195702 3.624928 -0.167380
v -0.171953 3.571396 -0.179557
v -0.127184 3.612578 -0.240504
v -0.217325 3.694527 -0.187033
v -0.172946 3.644840 -0.227697
v -0.113265 3.668309 -0.288364
v -0.201443 3.757355 -0.222506
v -0.157329 3.755533 -0.274586
v -0.116208 3.767282 -0.308580
v -0.156195 3.840312 -0.306905
v -0.046024 2.162747 0.605016
v -0.017474 2.160599 0.552196
v -0.040683 2.243504 0.543905
v -0.099238 2.190178 0.651538
v -0.075991 2.219221 0.582531
v -0.082194 2.304355 0.558531
v -0.134217 2.249579 0.679000
v -0.136227 2.307022 0.641592
v -0.133915 2.359628 0.626157
v -0.187511 2.364598 0.690183
vt 0.578125 0.020934
vt 0.421875 0.020934
vt 0.343750 0.156250
vt 0.421875 0.291566
vt 0.578125 0.291566
vt 0.656250 0.156250
vt 0.375000 0.312500
vt 0.416667 0.312500
vt 0.458333 0.312500
vt 0.500000 0.312500
vt 0.541667 0.312500
vt 0.583333 0.312500
vt 0.625000 0.312500
vt 0.375000 0.688440
vt 0.416667 0.688440
vt 0.458333 0.688440
vt 0.500000 0.688440
vt 0.541667 0.688440
vt 0.583333 0.688440
vt 0.625000 0.688440
vt 0.578125 0.708434
vt 0.421875 0.708434
vt 0.343750 0.843750
vt 0.421875 0.979066
vt 0.578125 0.979066
vt 0.656250 0.843750
vt 0.500000 0.150000
vt 0.500000 0.837500
vt 0.578125 0.979066
vt 0.578125 0.979066
vt 0.578125 0.979066
vt 0.578125 0.979066
vt 0.578125 0.979066
vt 0.578125 0.979066
vt 0.421875 0.979066
vt 0.421875 0.979066
vt 0.421875 0.979066
vt 0.421875 0.979066
vt 0.421875 0.979066
vt 0.421875 0.979066
vt 0.343750 0.843750
vt 0.343750 0.843750
vt 0.343750 0.843750
vt 0.343750 0.843750
vt 0.343750 0.843750
vt 0.343750 0.843750
vt 0.421875 0.708434
vt 0.421875 0.708434
vt 0.421875 0.708434
vt 0.421875 0.708434
vt 0.421875 0.708434
vt 0.421875 0.708434
vt 0.578125 0.708434
vt 0.578125 0.708434
vt 0.578125 0.708434
vt 0.578125 0.708434
vt 0.578125 0.708434
vt 0.578125 0.708434
vt 0.656250 0.843750
vt 0.656250 0.843750
vt 0.656250 0.843750
vt 0.656250 0.843750
vt 0.656250 0.843750
vt 0.656250 0.843750
vt 0.578125 0.979066
vt 0.421875 0.979066
vt 0.343750 0.843750
vt 0.421875 0.708434
vt 0.578125 0.708434
vt 0.656250 0.843750
vt 0.578125 0.979066
vt 0.421875 0.979066
vt 0.421875 0.979066
vt 0.578125 0.979066
vt 0.656250 0.843750
vt 0.656250 0.843750
vt 0.578125 0.979066
vt 0.421875 0.979066
vt 0.421875 0.979066
vt 0.578125 0.979066
vt 0.656250 0.843750
vt 0.656250 0.843750
vt 0.578125 0.979066
vt 0.656250 0.843750
vt 0.578125 0.708434
vt 0.421875 0.708434
vt 0.343750 0.843750
vt 0.421875 0.979066
vt 0.421875 0.979066
vt 0.343750 0.843750
vt 0.343750 0.843750
vt 0.421875 0.979066
vt 0.343750 0.843750
vt 0.421875 0.979066
vt 0.421875 0.979066
vt 0.421875 0.979066
vt 0.421875 0.979066
vt 0.421875 0.979066
vt 0.343750 0.843750
vt 0.343750 0.843750
vt 0.343750 0.843750
vt 0.343750 0.843750
vt 0.343750 0.843750
vt 0.343750 0.843750
vt 0.343750 0.843750
vt 0.343750 0.843750
vt 0.421875 0.979066
vt 0.421875 0.979066
vt 0.421875 0.979066
vt 0.421875 0.979066
vt 0.343750 0.843750
vt 0.343750 0.843750
vt 0.343750 0.843750
vt 0.343750 0.843750
vt 0.421875 0.979066
vt 0.421875 0.979066
vt 0.421875 0.979066
vt 0.421875 0.979066
vt 0.000000 0.000000
vt 0.500000 0.000000
vt 0.500000 0.333333
vt 0.000000 0.333333
vt 1.000000 0.000000
vt 1.000000 0.333333
vt 0.500000 0.666667
vt 0.000000 0.666667
vt 1.000000 0.666667
vt 0.500000 1.000000
vt 0.000000 0.000000
vt 0.500000 0.000000
vt 0.500000 0.333333
vt 0.000000 0.333333
vt 1.000000 0.000000
vt 1.000000 0.333333
vt 0.500000 0.666667
vt 0.000000 0.666667
vt 1.000000 0.666667
vt 0.500000 1.000000
vt 0.000000 0.000000
vt 0.500000 0.000000
vt 0.500000 0.333333
vt 0.000000 0.333333
vt 1.000000 0.000000
vt 1.000000 0.333333
vt 0.500000 0.666667
vt 0.000000 0.666667
vt 1.000000 0.666667
vt 0.500000 1.000000
vt 0.000000 0.000000
vt 0.500000 0.000000
vt 0.500000 0.333333
vt 0.000000 0.333333
vt 1.000000 0.000000
vt 1.000000 0.333333
vt 0.500000 0.666667
vt 0.000000 0.666667
vt 1.000000 0.666667
vt 0.500000 1.000000
vt 0.000000 0.000000
vt 0.500000 0.000000
vt 0.500000 0.333333
vt 0.000000 0.333333
vt 1.000000 0.000000
vt 1.000000 0.333333
vt 0.500000 0.666667
vt 0.000000 0.666667
vt 1.000000 0.666667
vt 0.500000 1.000000
vt 0.000000 0.000000
vt 0.500000 0.000000
vt 0.500000 0.333333
vt 0.000000 0.333333
vt 1.000000 0.000000
vt 1.000000 0.333333
vt 0.500000 0.666667
vt 0.000000 0.666667
vt 1.000000 0.666667
vt 0.500000 1.000000
vn 0.000000 0.000000 -1.000000
vn 0.000000 0.000000 -1.000000
vn 0.000000 0.015269 -0.999884
vn 0.000000 0.015269 -0.999883
vn -0.866025 0.000000 -0.500000
vn -0.866025 0.000000 -0.500000
vn -0.865759 0.017208 -0.500165
vn -0.865755 0.017386 -0.500166
vn -0.866026 0.000000 0.500000
vn -0.866026 0.000000 0.500000
vn -0.865982 0.021272 0.499622
vn -0.865980 0.021489 0.499617
vn -0.000000 0.000000 1.000000
vn -0.000000 0.000000 1.000000
vn -0.000000 0.023435 0.999725
vn -0.000000 0.023435 0.999725
vn 0.866025 0.000000 0.500000
vn 0.866025 0.000000 0.500000
vn 0.865980 0.021489 0.499617
vn 0.865982 0.021272 0.499622
vn 0.866026 0.000000 -0.500000
vn 0.866026 0.000000 -0.500000
vn 0.865755 0.017386 -0.500166
vn 0.865759 0.017208 -0.500165
vn 0.000000 -1.000000 0.000000
vn 0.000000 -1.000000 0.000000
vn 0.000000 -1.000000 0.000000
vn 0.000000 -1.000000 0.000000
vn 0.000000 -1.000000 0.000000
vn 0.000000 -1.000000 -0.000000
vn 0.000000 -1.000000 0.000000
vn 0.000000 0.587363 0.809324
vn 0.000000 0.587365 0.809322
vn 0.000000 0.587363 0.809323
vn 0.000000 0.587365 0.809322
vn 0.000000 0.587360 0.809326
vn 0.000000 0.587361 0.809325
vn 0.000000 0.587364 0.809323
vn 0.000000 0.035721 -0.999362
vn 0.000000 0.035753 -0.999361
vn -0.323667 0.226815 -0.918583
vn -0.316302 0.274180 -0.908173
vn -0.229197 0.270335 -0.935087
vn -0.319373 0.212343 -0.923532
vn -0.060242 0.435151 -0.898340
vn -0.120907 0.435314 -0.892123
vn -0.332304 0.638131 -0.694524
vn -0.139913 0.654198 -0.743270
vn -0.178616 0.569413 -0.802412
vn -0.180912 0.570536 -0.801099
vn 0.000000 0.470334 -0.882488
vn 0.000000 0.470334 -0.882488
vn -0.861722 0.036616 -0.506058
vn -0.861788 0.037098 -0.505911
vn -0.858031 0.026994 -0.512887
vn -0.858343 0.026961 -0.512368
vn -0.849841 0.131330 -0.510415
vn -0.850232 0.125052 -0.511339
vn -0.846371 0.172903 -0.503746
vn -0.846371 0.172903 -0.503746
vn -0.000002 0.665458 -0.746435
vn -0.000002 0.665458 -0.746435
vn 0.000004 0.665458 -0.746435
vn 0.000002 0.665458 -0.746435
vn -0.903219 0.270960 -0.332830
vn -0.903219 0.270960 -0.332830
vn -0.902177 0.258084 -0.345644
vn -0.900166 0.239513 -0.363779
vn -0.897488 0.220410 -0.382015
vn -0.897488 0.220410 -0.382015
vn -0.865726 0.035256 0.499276
vn -0.865705 0.036123 0.499249
vn -0.865942 0.017749 0.499829
vn -0.865942 0.017749 0.499830
vn -0.877612 -0.002645 0.479365
vn -0.876930 -0.001427 0.480616
vn -0.888372 -0.028643 0.458231
vn -0.905586 -0.163266 0.391483
vn -0.929887 -0.119577 0.347867
vn -0.879228 -0.270760 0.391978
vn -0.879439 -0.140899 0.454681
vn -0.929214 -0.219085 0.297597
vn -0.914469 -0.221428 0.338699
vn -0.897146 -0.203003 0.392324
vn -0.881872 -0.188523 0.432158
vn -0.881872 -0.188523 0.432158
vn -0.000000 0.035881 0.999356
vn -0.000000 0.035881 0.999356
vn -0.000000 0.014437 0.999896
vn -0.000000 0.014437 0.999896
vn -0.000000 -0.053513 0.998567
vn -0.000000 -0.053513 0.998567
vn -0.000000 -0.088427 0.996083
vn -0.000000 -0.088427 0.996083
vn 0.000000 -0.451442 0.892300
vn 0.000000 -0.451442 0.892300
vn 0.000000 -0.451442 0.892300
vn 0.000000 -0.451442 0.892300
vn 0.000000 -0.594132 0.804368
vn 0.000000 -0.594132 0.804368
vn 0.000000 -0.537458 0.843290
vn 0.000000 -0.537458 0.843290
vn 0.000000 -0.426757 0.904366
vn 0.000000 -0.426757 0.904366
vn 0.875093 0.040739 0.482237
vn 0.875340 0.040059 0.481845
vn 0.883675 0.021593 0.467603
vn 0.883389 0.021933 0.468127
vn 0.882619 -0.013958 0.469881
vn 0.881251 -0.017856 0.472311
vn 0.878979 -0.070587 0.471607
vn 0.878969 -0.070286 0.471671
vn 0.880791 -0.187647 0.434738
vn 0.880037 -0.188315 0.435973
vn 0.901902 -0.226036 0.368076
vn 0.906136 -0.238662 0.349225
vn 0.893161 -0.210995 0.397170
vn 0.903712 -0.235382 0.357632
vn 0.881872 -0.188523 0.432158
vn 0.881872 -0.188523 0.432158
vn 0.856905 0.039999 -0.513920
vn 0.856740 0.039644 -0.514223
vn 0.876080 0.182523 -0.446285
vn 0.862915 0.123461 -0.490035
vn 0.865219 0.145726 -0.479749
vn 0.864971 0.144269 -0.480637
vn 0.886108 0.242080 -0.395234
vn 0.884293 0.243654 -0.398319
vn 0.911524 0.271497 -0.308891
vn 0.915883 0.283268 -0.284460
vn 0.908297 0.249000 -0.336148
vn 0.916417 0.277123 -0.288762
vn 0.897488 0.220410 -0.382015
vn 0.897488 0.220410 -0.382015
vn -0.039622 -0.042417 -0.998314
vn -0.015673 -0.000187 -0.999877
vn 0.859251 -0.003553 -0.511543
vn 0.865271 -0.038237 -0.499845
vn -0.273611 -0.554289 -0.786066
vn -0.271681 -0.537828 -0.798079
vn -0.636149 0.032689 -0.770874
vn -0.636149 0.032689 -0.770874
vn -0.654961 0.038386 -0.754687
vn -0.651933 0.037462 -0.757350
vn -0.261061 0.525983 -0.809438
vn -0.261061 0.525983 -0.809438
vn 0.781156 -0.620098 -0.072623
vn 0.739614 -0.672560 0.025172
vn 0.864588 0.468241 -0.182312
vn 0.864588 0.468241 -0.182312
vn 0.990651 -0.000208 0.136418
vn 0.990651 -0.000208 0.136418
vn 0.990651 -0.000208 0.136418
vn 0.990651 -0.000208 0.136418
vn -0.277475 -0.589891 -0.758311
vn -0.277475 -0.589891 -0.758311
vn -0.662725 0.040769 -0.747752
vn -0.662725 0.040769 -0.747752
vn -0.583618 0.754255 -0.300815
vn -0.583618 0.754255 -0.300815
vn -0.583618 0.754255 -0.300815
vn -0.583618 0.754255 -0.300815
vn 0.691867 -0.712735 0.115452
vn 0.691867 -0.712735 0.115452
vn 0.394018 0.638659 0.660958
vn 0.394018 0.638659 0.660958
vn 0.394018 0.638659 0.660958
vn 0.394018 0.638659 0.660958
vn 0.757496 -0.029783 0.652160
vn 0.757496 -0.029783 0.652160
vn 0.757496 -0.029783 0.652160
vn 0.757496 -0.029783 0.652160
vn 0.000009 0.665459 -0.746435
vn 0.000009 0.665459 -0.746435
vn -0.412949 -0.353182 -0.839485
vn -0.412949 -0.353182 -0.839485
vn -0.412949 -0.353182 -0.839485
vn -0.412949 -0.353182 -0.839485
vn -0.741824 -0.625724 0.241177
vn -0.741824 -0.625724 0.241177
vn -0.012737 0.186094 -0.982449
vn -0.012737 0.186094 -0.982449
vn -0.509352 -0.060150 0.858453
vn -0.458587 -0.072950 0.885650
vn 0.166250 0.502543 0.848417
vn 0.166250 0.502543 0.848417
vn 0.166250 0.502543 0.848417
vn 0.166250 0.502543 0.848417
vn 0.233674 0.849875 -0.472343
vn 0.233674 0.849875 -0.472343
vn -0.453900 -0.237142 -0.858917
vn -0.453900 -0.237142 -0.858917
vn -0.457897 -0.076339 -0.885721
vn -0.457923 -0.078394 -0.885529
vn -0.469130 0.001645 -0.883128
vn -0.470221 -0.000729 -0.882549
vn -0.501277 -0.153018 -0.851650
vn -0.501528 -0.156583 -0.850853
vn -0.505874 -0.313113 -0.803774
vn -0.505874 -0.313113 -0.803774
vn -0.956119 -0.292384 0.018628
vn -0.956120 -0.292384 0.018628
vn -0.994723 -0.092925 -0.043487
vn -0.987178 -0.157869 -0.023621
vn -0.998707 0.012751 -0.049207
vn -0.998899 0.012685 -0.045166
vn -0.999864 0.011459 -0.011882
vn -0.999863 0.011417 -0.012027
vn -0.999829 0.010481 -0.015227
vn -0.999829 0.010481 -0.015227
vn 0.517574 0.065115 -0.853157
vn 0.517574 0.065115 -0.853157
vn 0.526403 0.051089 -0.848699
vn 0.530009 0.045285 -0.846782
vn 0.523197 -0.000616 -0.852212
vn 0.524163 0.002208 -0.851615
vn 0.517645 -0.154756 -0.841483
vn 0.517383 -0.151119 -0.842305
vn 0.522024 -0.309414 -0.794829
vn 0.522024 -0.309414 -0.794829
vn -0.536780 -0.027494 0.843274
vn -0.534343 -0.036077 0.844498
vn -0.526706 0.023021 0.849735
vn -0.525688 0.025523 0.850295
vn -0.517691 0.176818 0.837097
vn -0.517949 0.180173 0.836222
vn -0.522967 0.333343 0.784467
vn -0.522967 0.333343 0.784467
vn 0.453240 0.238087 0.859004
vn 0.453240 0.238087 0.859004
vn 0.456528 0.084919 0.885647
vn 0.456506 0.083479 0.885795
vn 0.470515 0.023356 0.882083
vn 0.469267 0.020448 0.882820
vn 0.501823 0.181982 0.845610
vn 0.501576 0.178697 0.846457
vn 0.506797 0.336957 0.793484
vn 0.506797 0.336957 0.793484
vn 0.958977 0.283114 -0.014465
vn 0.958977 0.283114 -0.014465
vn 0.988507 0.148466 0.028506
vn 0.994808 0.090508 0.046526
vn 0.999058 0.011229 0.041922
vn 0.998884 0.010970 0.045935
vn 0.999872 0.014975 0.005629
vn 0.999872 0.014875 0.005827
vn 0.999852 0.017188 0.001255
vn 0.999852 0.017188 0.001255
vn 0.707966 0.153793 -0.689299
vn 0.707966 0.153793 -0.689299
vn 0.707966 0.153793 -0.689299
vn 0.707966 0.153793 -0.689299
vn 0.707966 0.153793 -0.689299
vn 0.707966 0.153793 -0.689299
vn 0.557402 0.346365 -0.754542
vn 0.388029 0.354350 -0.850805
vn 0.337074 0.461974 -0.820342
vn 0.439441 0.519040 -0.733136
vn 0.154339 0.345235 -0.925739
vn 0.218121 0.543181 -0.810788
vn 0.297216 0.567785 -0.767648
vn 0.394392 0.565001 -0.724727
vn 0.210664 0.569371 -0.794630
vn 0.281171 0.525885 -0.802738
vn 0.559807 0.346068 0.752897
vn 0.691487 0.381388 0.613505
vn 0.661963 0.490982 0.566340
vn 0.547434 0.528367 0.648956
vn 0.819513 0.405142 0.405289
vn 0.671479 0.583888 0.456279
vn 0.608574 0.595598 0.524310
vn 0.544713 0.578186 0.607444
vn 0.654692 0.609240 0.447442
vn 0.650892 0.558987 0.513685
vn 0.786996 0.294488 -0.542138
vn 0.661409 0.291064 -0.691245
vn 0.604062 0.399762 -0.689420
vn 0.670507 0.465887 -0.577382
vn 0.467940 0.271038 -0.841172
vn 0.489893 0.479029 -0.728379
vn 0.549430 0.508710 -0.662829
vn 0.625755 0.511452 -0.588938
vn 0.477554 0.506301 -0.718054
vn 0.546114 0.463749 -0.697636
vn -0.711455 0.672159 -0.205023
vn -0.713475 0.700575 -0.012134
vn -0.623847 0.781471 0.010885
vn -0.574347 0.809207 -0.123728
vn -0.677464 0.698414 0.230783
vn -0.532530 0.839709 0.106307
vn -0.521710 0.853000 0.014497
vn -0.529797 0.843227 -0.091011
vn -0.505761 0.856419 0.103692
vn -0.560005 0.827111 0.047770
vn 0.839557 0.335317 0.427442
vn 0.719386 0.405256 0.564137
vn 0.699803 0.312491 0.642358
vn 0.783962 0.207759 0.585013
vn 0.529590 0.471201 0.705340
vn 0.616949 0.253800 0.744956
vn 0.682885 0.203955 0.701477
vn 0.756120 0.171953 0.631439
vn 0.613982 0.224547 0.756707
vn 0.665349 0.258136 0.700483
vn 0.717520 0.550594 0.426628
vn 0.695578 0.428257 0.576859
vn 0.765906 0.330733 0.551365
vn 0.826142 0.370634 0.424404
vn 0.630440 0.251468 0.734377
vn 0.795743 0.191427 0.574585
vn 0.831886 0.237252 0.501674
vn 0.849664 0.310178 0.426452
vn 0.811981 0.169487 0.558535
vn 0.799169 0.250811 0.546280
s 1
g pCylinder2
usemtl lambert3SG
f 1/7/1 2/8/2 8/15/3 7/14/4
s 2
f 2/8/5 3/9/6 9/16/7 8/15/8
s 3
f 3/9/9 4/10/10 10/17/11 9/16/12
s 4
f 4/10/13 5/11/14 11/18/15 10/17/16
s 5
f 5/11/17 6/12/18 12/19/19 11/18/20
s 6
f 6/12/21 1/13/22 7/20/23 12/19/24
s 7
f 2/2/25 1/1/26 13/27/27
f 3/3/28 2/2/25 13/27/27
f 4/4/29 3/3/28 13/27/27
f 5/5/30 4/4/29 13/27/27
f 6/6/31 5/5/30 13/27/27
f 1/1/26 6/6/31 13/27/27
s 8
f 19/34/32 25/40/33 26/28/34
f 25/40/33 32/46/35 26/28/34
f 32/46/35 38/52/36 26/28/34
f 38/52/36 44/58/37 26/28/34
f 44/58/37 50/64/38 26/28/34
f 50/64/38 19/34/32 26/28/34
s 1
f 7/25/4 8/24/3 20/35/39 14/29/40
s 9
f 15/30/41 21/36/42 22/37/43 16/31/44
f 16/31/44 22/37/43 74/88/45 69/83/46
f 17/32/47 23/38/48 24/39/49 18/33/50
f 18/33/50 24/39/49 25/40/51 19/34/52
s 2
f 8/24/8 9/23/7 27/41/53 20/35/54
f 52/66/55 53/67/56 28/42/57 21/36/58
f 21/36/58 28/42/57 29/43/59 22/37/60
s 10
f 84/98/61 88/102/62 92/106/63 96/110/64
s 11
f 23/38/65 30/44/66 31/45/67 24/39/68
f 24/39/68 31/45/67 32/46/69 25/40/70
s 3
f 9/23/12 10/22/11 33/47/71 27/41/72
f 53/67/73 54/68/74 34/48/75 28/42/76
f 28/42/76 34/48/75 35/49/77 29/43/78
f 29/43/78 35/49/77 72/86/79 73/87/80
f 30/44/81 36/50/82 37/51/83 31/45/84
f 31/45/84 37/51/83 38/52/85 32/46/86
s 4
f 10/22/16 11/21/15 39/53/87 33/47/88
f 54/68/89 55/69/90 40/54/91 34/48/92
f 34/48/92 40/54/91 41/55/93 35/49/94
s 12
f 35/49/95 41/55/96 71/85/97 72/86/98
f 36/50/99 42/56/100 43/57/101 37/51/102
f 37/51/102 43/57/101 44/58/103 38/52/104
s 5
f 11/21/20 12/26/19 45/59/105 39/53/106
f 55/69/107 56/70/108 46/60/109 40/54/110
f 40/54/110 46/60/109 47/61/111 41/55/112
f 41/55/112 47/61/111 70/84/113 71/85/114
f 42/56/115 48/62/116 49/63/117 43/57/118
f 43/57/118 49/63/117 50/64/119 44/58/120
s 6
f 12/26/24 7/25/23 14/29/121 45/59/122
s 13
f 46/60/123 15/30/124 16/31/125 47/61/126
f 47/61/126 16/31/125 69/83/127 70/84/128
f 48/62/129 17/32/130 18/33/131 49/63/132
f 49/63/132 18/33/131 19/34/133 50/64/134
s 1
f 14/29/40 20/35/39 52/66/135 51/65/136
s 2
f 20/35/54 27/41/53 53/67/56 52/66/55
s 3
f 27/41/72 33/47/71 54/68/74 53/67/73
s 4
f 33/47/88 39/53/87 55/69/90 54/68/89
s 5
f 39/53/106 45/59/105 56/70/108 55/69/107
s 6
f 45/59/122 14/29/121 51/65/137 56/70/138
s 1
f 51/65/136 52/66/135 58/72/139 57/71/140
s 14
f 52/66/141 21/36/142 59/73/143 58/72/144
s 9
f 21/36/42 15/30/41 60/74/145 59/73/146
s 6
f 56/70/138 51/65/137 57/71/147 61/75/148
s 13
f 15/30/124 46/60/123 62/76/149 60/74/150
s off
f 46/60/151 56/70/152 61/75/153 62/76/154
s 1
f 57/71/140 58/72/139 64/78/155 63/77/156
s 14
f 58/72/144 59/73/143 65/79/157 64/78/158
s off
f 59/73/159 60/74/160 66/80/161 65/79/162
s 6
f 61/75/148 57/71/147 63/77/163 67/81/164
s off
f 60/74/165 62/76/166 68/82/167 66/80/168
f 62/76/169 61/75/170 67/81/171 68/82/172
s 13
f 70/84/128 69/83/127 17/32/130 48/62/129
s 5
f 71/85/114 70/84/113 48/62/116 42/56/115
s 12
f 72/86/98 71/85/97 42/56/100 36/50/99
s 3
f 73/87/80 72/86/79 36/50/82 30/44/81
s 10
f 96/110/64 92/106/63 100/114/173 104/118/174
s 9
f 69/83/46 74/88/45 23/38/48 17/32/47
s off
f 22/37/175 29/43/176 76/90/177 75/89/178
s 3
f 29/43/78 73/87/80 77/91/179 76/90/180
s 9
f 74/88/45 22/37/43 75/89/181 78/92/182
s 3
f 73/87/80 30/44/81 79/93/183 77/91/184
s off
f 30/44/185 23/38/186 80/94/187 79/93/188
s 9
f 23/38/48 74/88/45 78/92/189 80/94/190
s 15
f 75/89/191 76/90/192 85/99/193 81/95/194
f 81/95/194 85/99/193 86/100/195 82/96/196
f 82/96/196 86/100/195 87/101/197 83/97/198
f 83/97/198 87/101/197 88/102/199 84/98/200
s 16
f 76/90/201 77/91/202 89/103/203 85/99/204
f 85/99/204 89/103/203 90/104/205 86/100/206
f 86/100/206 90/104/205 91/105/207 87/101/208
f 87/101/208 91/105/207 92/106/209 88/102/210
s 17
f 78/92/211 75/89/212 81/95/213 93/107/214
f 93/107/214 81/95/213 82/96/215 94/108/216
f 94/108/216 82/96/215 83/97/217 95/109/218
f 95/109/218 83/97/217 84/98/219 96/110/220
s 3
f 77/91/184 79/93/183 97/111/221 89/103/222
f 89/103/222 97/111/221 98/112/223 90/104/224
f 90/104/224 98/112/223 99/113/225 91/105/226
f 91/105/226 99/113/225 100/114/227 92/106/228
s 18
f 79/93/229 80/94/230 101/115/231 97/111/232
f 97/111/232 101/115/231 102/116/233 98/112/234
f 98/112/234 102/116/233 103/117/235 99/113/236
f 99/113/236 103/117/235 104/118/237 100/114/238
s 19
f 80/94/239 78/92/240 93/107/241 101/115/242
f 101/115/242 93/107/241 94/108/243 102/116/244
f 102/116/244 94/108/243 95/109/245 103/117/246
f 103/117/246 95/109/245 96/110/247 104/118/248
s off
f 64/78/249 65/79/250 66/80/251 68/82/252 67/81/253 63/77/254
s 20
usemtl bush2_model_v2:lambert2SG
f 105/119/255 106/120/256 109/121/257 108/122/258
f 106/120/256 107/123/259 110/124/260 109/121/257
f 108/122/258 109/121/257 112/125/261 111/126/262
f 109/121/257 110/124/260 113/127/263 112/125/261
f 111/126/262 112/125/261 114/128/264
f 112/125/261 113/127/263 114/128/264
s 21
f 115/129/265 116/130/266 119/131/267 118/132/268
f 116/130/266 117/133/269 120/134/270 119/131/267
f 118/132/268 119/131/267 122/135/271 121/136/272
f 119/131/267 120/134/270 123/137/273 122/135/271
f 121/136/272 122/135/271 124/138/274
f 122/135/271 123/137/273 124/138/274
s 22
f 125/139/275 126/140/276 129/141/277 128/142/278
f 126/140/276 127/143/279 130/144/280 129/141/277
f 128/142/278 129/141/277 132/145/281 131/146/282
f 129/141/277 130/144/280 133/147/283 132/145/281
f 131/146/282 132/145/281 134/148/284
f 132/145/281 133/147/283 134/148/284
s 23
f 135/149/285 136/150/286 139/151/287 138/152/288
f 136/150/286 137/153/289 140/154/290 139/151/287
f 138/152/288 139/151/287 142/155/291 141/156/292
f 139/151/287 140/154/290 143/157/293 142/155/291
f 141/156/292 142/155/291 144/158/294
f 142/155/291 143/157/293 144/158/294
s 24
f 145/159/295 146/160/296 149/161/297 148/162/298
f 146/160/296 147/163/299 150/164/300 149/161/297
f 148/162/298 149/161/297 152/165/301 151/166/302
f 149/161/297 150/164/300 153/167/303 152/165/301
f 151/166/302 152/165/301 154/168/304
f 152/165/301 153/167/303 154/168/304
s 25
f 155/169/305 156/170/306 159/171/307 158/172/308
f 156/170/306 157/173/309 160/174/310 159/171/307
f 158/172/308 159/171/307 162/175/311 161/176/312
f 159/171/307 160/174/310 163/177/313 162/175/311
f 161/176/312 162/175/311 164/178/314
f 162/175/311 163/177/313 164/178/314
